<?xml version="1.0" encoding="UTF-8"?>
<svg id="Layer_1" data-name="Layer 1" xmlns="http://www.w3.org/2000/svg" viewBox="0 0 80.16 62.45">
  <defs>
    <style>
      .cls-1 {
        fill: #231f20;
      }
    </style>
  </defs>
  <path class="cls-1" d="M25.01,29.85c-3.91,2.58-5.89,7.07-7.82,11.16s-3.06,8.74-1.18,13.18c1.65,3.9,5.18,6.84,9.28,7.84,4.64,1.14,9.7-.13,13.61-2.77,4.37-2.96,7.39-7.5,9.38-12.32l-.81-1.35c-.83,2.83-1.52,6.06-.42,8.91,1.17,3.03,4.23,3.93,7.22,3.94,6.66,.03,14.17-3.08,17.3-9.27,1.48-2.92,1.26-5.75,.6-8.83-.2-.95-.35-1.78,.5-2.44,.64-.5,1.47-.64,2.23-.85,1.41-.38,2.59-1.05,3.49-2.22,2.15-2.76,2-6.58,1.33-9.81-.76-3.68-1.89-7.34-3.29-10.83-1.12-2.79-3.09-6.34-6.49-6.55-3.01-.19-5.25,2.06-5.17,5.01l.86-1.19c-4.03-4.25-9.69-6.79-15.58-6.68s-11.57,2.83-15.32,7.26c-.47,.56-.34,1.89,.19,2.37,1.93,1.72,4.21-.98,4.49-2.83,.43-2.79-1.46-4.94-3.62-6.4-2.84-1.92-5.95-3.74-9.27-4.67S19.92-.02,16.72,1.33C10.99,3.75,5.49,8.01,2.48,13.53s-3.52,12.61-.31,18.05c.82,1.39,1.93,2.73,3.4,3.46,1.67,.83,3.63,.78,5.45,.72,4.27-.13,8.45-1.02,12.45-2.51,.77-.29,.54-3.13-.4-2.78-2.86,1.07-5.83,1.81-8.86,2.17-2.66,.32-6.27,.84-8.69-.55C.81,29.38,.58,22.48,2.29,17.99c1.83-4.8,5.74-8.52,10-11.23,2.35-1.49,4.91-2.88,7.64-3.51s5.69-.33,8.42,.72,5.44,2.5,7.81,4.17c.86,.61,2.72,1.96,1.99,3.14-.56,.91-1.95,1.63-2.84,.75l.05,2.24c3.83-4.12,9.09-6.68,14.76-6.77s11.12,2.26,14.98,6.3c.64,.67,.87-.81,.86-1.19-.02-.86,1.11-1.56,1.78-1.85,1.04-.46,2.33-.55,3.4-.15,2.52,.94,3.81,3.66,4.72,6,1.17,2.99,2.15,6.11,2.84,9.25,.63,2.91,.58,6.46-2.35,8.14-2.05,1.17-4.66,.68-5.32,3.54-.6,2.59,1.03,5,.59,7.56-.98,5.67-7.41,9.21-12.49,10.36-2.85,.65-6.67,1.12-9.34-.37-3.18-1.78-2.24-5.53-1.42-8.4,.14-.49-.36-2.47-.81-1.35-3.11,7.77-9.62,14.8-18.52,14.98-4.1,.08-8.05-1.54-10.67-4.74-1.24-1.51-2.17-3.34-2.42-5.3-.31-2.38,.52-4.76,1.42-6.93,1.79-4.33,3.87-9.24,7.89-11.95,.41-.28,.19-1.84-.23-1.56h0Z"/>
</svg>